<svg xmlns="http://www.w3.org/2000/svg" viewBox="0 0 234.7 234.7"><defs><style>.cls-1{fill:#de6438;}.cls-2{fill:#e8983f;}.cls-3{fill:#f1e64f;}</style></defs><g id="Layer_2" data-name="Layer 2"><g id="Layer_1-2" data-name="Layer 1"><g id="logo"><path class="cls-1" d="M105.69,18c5.58.84,11.09,1.54,16.67,2.5,17.44,2.95,33.14,9.81,46.54,21.35A36.75,36.75,0,0,1,177,52.06c4.16,7.63.32,13.79-8.34,13.92-10.32.12-19.93-3.34-29.55-6.42-10.06-3.26-19.94-7.18-30.77-7C99.47,52.71,96,56.23,95.69,65c-.26,8.34,3,15.52,7.56,22.06,6.41,9,13.47,17.63,20.07,26.54,6.86,9.29,13,19,15.26,30.7,3.59,17.95-.07,34.05-12.63,47.51-5.58,6-11.86,11.28-17.89,16.92a17,17,0,0,1-2.69,1.61c2.95-4.81,5.9-8.79,7.82-13.15,7.69-17.56,7.44-34.74-2.82-51.41-6.15-10-14.23-18.34-21.92-27C77.16,105.85,66.84,92.26,60.11,76.36A45.69,45.69,0,0,1,57,65.66C55,52.38,61.39,42.13,74.47,38.86A101.84,101.84,0,0,1,94.73,36c8.84-.45,17.69,0,26.6,0a11.32,11.32,0,0,0,2.89-.26c2.75-.7,3.46-2.56,1.28-4.23-4.55-3.46-9.42-6.54-14.23-9.62-1.8-1.15-3.78-2-5.64-2.95Z"/><path class="cls-2" d="M140.63,182.59c1.54-3.53,2.82-6.16,4-8.85,6.48-15.19,8.91-30.77,3.59-46.8-3.33-10.19-10.57-17.88-17.88-25.38a180.47,180.47,0,0,1-15.39-18c-2.31-3.15-3.59-7.25-4.49-11.16C109,66.62,113.06,61.87,119,60.91c8-1.22,13.6,3,18.72,7.89,13.21,12.56,21.93,27.75,25.07,45.83,2,11.22-.45,22.12-3.14,32.89-3.14,12.69-9.81,23.53-17.5,33.91Z"/><path class="cls-3" d="M169.93,123a62.24,62.24,0,0,1,.57-6.93c2-10.45-1.41-19.55-7.05-28-2-3.08-4.29-6.09-6.35-9.23A6.76,6.76,0,0,1,155.76,76c-.07-1.54-.07-3.72.83-4.56a5.51,5.51,0,0,1,4.62-.64c8.91,3.79,13.27,11.16,15.64,20.07,2.44,9.1-.58,17.5-3.4,25.9-.7,2.18-1.6,4.29-2.43,6.41Z"/></g><path class="cls-1" d="M117.35,234.7A117.35,117.35,0,1,1,234.7,117.35,117.48,117.48,0,0,1,117.35,234.7Zm0-230.7A113.35,113.35,0,1,0,230.7,117.35,113.48,113.48,0,0,0,117.35,4Z"/></g></g></svg>